<svg width="28" height="27" viewBox="0 0 28 27" fill="none" xmlns="http://www.w3.org/2000/svg">
<g filter="url(#filter0_d_132_13)">
<path d="M22.3333 5.41667H17.3333" stroke="white" stroke-width="1.5" stroke-miterlimit="10" stroke-linecap="round" stroke-linejoin="round"/>
<path d="M9.00002 5.41667H5.66669" stroke="white" stroke-width="1.5" stroke-miterlimit="10" stroke-linecap="round" stroke-linejoin="round"/>
<path d="M12.3334 8.33333C13.9442 8.33333 15.25 7.0275 15.25 5.41667C15.25 3.80584 13.9442 2.5 12.3334 2.5C10.7225 2.5 9.41669 3.80584 9.41669 5.41667C9.41669 7.0275 10.7225 8.33333 12.3334 8.33333Z" stroke="white" stroke-width="1.5" stroke-miterlimit="10" stroke-linecap="round" stroke-linejoin="round"/>
<path d="M22.3333 14.5833H19" stroke="white" stroke-width="1.5" stroke-miterlimit="10" stroke-linecap="round" stroke-linejoin="round"/>
<path d="M10.6667 14.5833H5.66669" stroke="white" stroke-width="1.5" stroke-miterlimit="10" stroke-linecap="round" stroke-linejoin="round"/>
<path d="M15.6667 17.5C17.2775 17.5 18.5833 16.1942 18.5833 14.5833C18.5833 12.9725 17.2775 11.6667 15.6667 11.6667C14.0558 11.6667 12.75 12.9725 12.75 14.5833C12.75 16.1942 14.0558 17.5 15.6667 17.5Z" stroke="white" stroke-width="1.5" stroke-miterlimit="10" stroke-linecap="round" stroke-linejoin="round"/>
</g>
<defs>
<filter id="filter0_d_132_13" x="0.916687" y="1.75" width="26.1666" height="24.5" filterUnits="userSpaceOnUse" color-interpolation-filters="sRGB">
<feFlood flood-opacity="0" result="BackgroundImageFix"/>
<feColorMatrix in="SourceAlpha" type="matrix" values="0 0 0 0 0 0 0 0 0 0 0 0 0 0 0 0 0 0 127 0" result="hardAlpha"/>
<feOffset dy="4"/>
<feGaussianBlur stdDeviation="2"/>
<feComposite in2="hardAlpha" operator="out"/>
<feColorMatrix type="matrix" values="0 0 0 0 0 0 0 0 0 0 0 0 0 0 0 0 0 0 0.25 0"/>
<feBlend mode="normal" in2="BackgroundImageFix" result="effect1_dropShadow_132_13"/>
<feBlend mode="normal" in="SourceGraphic" in2="effect1_dropShadow_132_13" result="shape"/>
</filter>
</defs>
</svg>
